<svg xmlns="http://www.w3.org/2000/svg" viewBox="0 0 64 64">
  <rect width="64" height="64" rx="16" fill="#f6ead5"/>
  <path d="M11 31c3-13 17-22 31-20 5 1 9 3 12 6-1 10-11 19-24 22-9 2-15 1-19-1Z" fill="#d7d5e8"/>
  <path d="M15 29c4-10 15-17 27-16 4 0 7 1 10 3-2 8-10 15-21 17-7 2-12 1-16-1Z" fill="#edeaf6"/>
  <path d="M31 29c5 2 7 7 6 13-1 5-5 10-10 13-1 1-3 0-3-2 4-4 7-8 7-12 1-5-1-8-4-10 1-2 2-3 4-2Z" fill="#8c7a61"/>
  <path d="M18 31c5 0 10-1 16-3 8-3 14-7 18-12" fill="none" stroke="#c6bfdc" stroke-linecap="round" stroke-width="2.4"/>
  <path d="M26 53c3-2 6-6 7-10" fill="none" stroke="#6f5f4b" stroke-linecap="round" stroke-width="2.6"/>
</svg>
